<svg width="27" height="27" viewBox="0 0 27 27" fill="none" xmlns="http://www.w3.org/2000/svg">
<path d="M20.1875 14.9424H14.8125V20.3174H12.1875V14.9424H6.8125V12.3174H12.1875V6.94244H14.8125V12.3174H20.1875V14.9424ZM13.5 0.317444C11.75 0.317444 10.0521 0.650778 8.40625 1.31744C6.76042 1.98411 5.3125 2.94244 4.0625 4.19244C2.8125 5.44244 1.85417 6.89036 1.1875 8.53619C0.520833 10.182 0.1875 11.8799 0.1875 13.6299C0.1875 15.3799 0.520833 17.0779 1.1875 18.7237C1.85417 20.3695 2.8125 21.8174 4.0625 23.0674C5.3125 24.3174 6.76042 25.2758 8.40625 25.9424C10.0521 26.6091 11.75 26.9424 13.5 26.9424C15.25 26.9424 16.9479 26.6091 18.5938 25.9424C20.2396 25.2758 21.6875 24.3174 22.9375 23.0674C24.1875 21.8174 25.1458 20.3695 25.8125 18.7237C26.4792 17.0779 26.8125 15.3799 26.8125 13.6299C26.8125 11.8799 26.4792 10.182 25.8125 8.53619C25.1458 6.89036 24.1875 5.44244 22.9375 4.19244C21.6875 2.94244 20.2396 1.98411 18.5938 1.31744C16.9479 0.650778 15.25 0.317444 13.5 0.317444Z" fill="#2563EB"/>
</svg>
