<svg width="38" height="38" viewBox="0 0 38 38" fill="none" xmlns="http://www.w3.org/2000/svg">
<path fill-rule="evenodd" clip-rule="evenodd" d="M19 3.8C16.3414 3.79951 13.7293 4.49633 11.4242 5.82089C9.11908 7.14546 7.20171 9.05144 5.86344 11.3486C4.52518 13.6458 3.81282 16.2538 3.79748 18.9123C3.78214 21.5708 4.46435 24.1868 5.77601 26.4993C6.66257 25.3471 7.80223 24.4142 9.10687 23.7728C10.4115 23.1313 11.8462 22.7985 13.3 22.8H24.7C26.1538 22.7985 27.5885 23.1313 28.8931 23.7728C30.1978 24.4142 31.3374 25.3471 32.224 26.4993C33.5357 24.1868 34.2179 21.5708 34.2025 18.9123C34.1872 16.2538 33.4748 13.6458 32.1366 11.3486C30.7983 9.05144 28.8809 7.14546 26.5758 5.82089C24.2707 4.49633 21.6586 3.79951 19 3.8ZM34.0917 30.5444C34.3298 30.2341 34.5578 29.9161 34.7757 29.5906C36.8821 26.4607 38.0049 22.7727 38 19C38 8.5063 29.4937 0 19 0C8.50631 0 1.94853e-05 8.5063 1.94853e-05 19C-0.00596803 23.1738 1.36809 27.2326 3.90832 30.5444L3.89882 30.5786L4.57332 31.3633C6.3553 33.4467 8.56784 35.1189 11.0584 36.2646C13.5491 37.4104 16.2585 38.0024 19 38C19.4104 38 19.8183 37.9873 20.2236 37.962C23.6519 37.7458 26.9566 36.5996 29.7825 34.6465C31.134 33.7141 32.3589 32.6106 33.4267 31.3633L34.1012 30.5786L34.0917 30.5444ZM19 7.6C17.4883 7.6 16.0385 8.20053 14.9695 9.26949C13.9005 10.3384 13.3 11.7883 13.3 13.3C13.3 14.8117 13.9005 16.2615 14.9695 17.3305C16.0385 18.3995 17.4883 19 19 19C20.5117 19 21.9616 18.3995 23.0305 17.3305C24.0995 16.2615 24.7 14.8117 24.7 13.3C24.7 11.7883 24.0995 10.3384 23.0305 9.26949C21.9616 8.20053 20.5117 7.6 19 7.6Z" fill="#858585"/>
</svg>
